<svg width="527" height="974" viewBox="0 0 527 974" fill="none" xmlns="http://www.w3.org/2000/svg">
<g opacity="0.05">
<path opacity="0.91" d="M351.98 131.74C38.9736 -89.3952 -73.0047 32.1497 -82.3519 43.4064C-82.8303 43.9824 -82.9954 44.6214 -82.9867 45.3701L-79.9235 311.087C-78.4803 436.282 22.655 538.903 145.536 514.896C272.573 490.078 416.315 435.508 467.082 315.934C517.709 196.69 377.252 149.594 351.98 131.74Z" fill="#2B6590"/>
</g>
<g opacity="0.91" filter="url(#filter0_d_9_50)">
<path d="M356.474 632.324C243.784 552.726 166.852 533.927 117.065 536.226C67.311 538.523 44.5191 561.9 40.0965 567.026C39.691 567.496 39.4874 568.103 39.4953 568.791L40.5282 658.365C41.3899 733.101 73.1513 803.076 121.977 847.361C170.778 891.624 236.597 910.215 305.753 882.331C364.662 858.579 416.618 822.062 440.43 765.989C449.619 744.348 450.11 726.062 445.466 710.596C440.816 695.11 430.988 682.353 419.375 671.845C407.761 661.336 394.403 653.115 382.762 646.694C378.202 644.178 373.916 641.945 370.099 639.956C369.043 639.406 368.024 638.874 367.044 638.361C362.547 636.004 358.852 634.004 356.474 632.324Z" stroke="#2B6590" stroke-width="2"/>
</g>
<mask id="mask0_9_50" style="mask-type:alpha" maskUnits="userSpaceOnUse" x="38" y="490" width="342" height="291">
<path opacity="0.69" d="M302.679 570.189C116.806 439.033 47.6462 506.587 39.347 516.048C38.7549 516.723 38.4852 517.58 38.4956 518.478L38.8175 546.371C40.5488 696.369 172.92 835.672 301.579 758.54C332.771 739.839 358.541 714.976 372.59 681.928C403.34 609.59 318.028 581.02 302.679 570.189Z" fill="#2B6590"/>
</mask>
<g mask="url(#mask0_9_50)">
<ellipse cx="40.4929" cy="486.53" rx="4.77418" ry="3.84902" fill="#2B6590"/>
<ellipse cx="56.4072" cy="486.53" rx="4.77418" ry="3.84902" fill="#2B6590"/>
<ellipse cx="72.3213" cy="486.53" rx="4.77418" ry="3.84902" fill="#2B6590"/>
<ellipse cx="88.2351" cy="486.53" rx="4.77418" ry="3.84902" fill="#2B6590"/>
<ellipse cx="104.149" cy="486.53" rx="4.77418" ry="3.84902" fill="#2B6590"/>
<ellipse cx="120.064" cy="486.53" rx="4.77418" ry="3.84902" fill="#2B6590"/>
<ellipse cx="135.976" cy="486.53" rx="4.77418" ry="3.84902" fill="#2B6590"/>
<ellipse cx="151.891" cy="486.53" rx="4.77418" ry="3.84902" fill="#2B6590"/>
<ellipse cx="167.804" cy="486.53" rx="4.77418" ry="3.84902" fill="#2B6590"/>
<ellipse cx="183.719" cy="486.53" rx="4.77418" ry="3.84902" fill="#2B6590"/>
<ellipse cx="199.633" cy="486.53" rx="4.77418" ry="3.84902" fill="#2B6590"/>
<ellipse cx="215.547" cy="486.53" rx="4.77418" ry="3.84902" fill="#2B6590"/>
<ellipse cx="231.459" cy="486.53" rx="4.77418" ry="3.84902" fill="#2B6590"/>
<ellipse cx="247.374" cy="486.53" rx="4.77418" ry="3.84902" fill="#2B6590"/>
<ellipse cx="263.288" cy="486.53" rx="4.77418" ry="3.84902" fill="#2B6590"/>
<ellipse cx="279.202" cy="486.53" rx="4.77418" ry="3.84902" fill="#2B6590"/>
<ellipse cx="295.116" cy="486.53" rx="4.77418" ry="3.84902" fill="#2B6590"/>
<ellipse cx="311.031" cy="486.53" rx="4.77418" ry="3.84902" fill="#2B6590"/>
<ellipse cx="326.944" cy="486.53" rx="4.77418" ry="3.84902" fill="#2B6590"/>
<ellipse cx="342.858" cy="486.53" rx="4.77418" ry="3.84902" fill="#2B6590"/>
<ellipse cx="358.772" cy="486.53" rx="4.77418" ry="3.84902" fill="#2B6590"/>
<ellipse cx="374.686" cy="486.53" rx="4.77418" ry="3.84902" fill="#2B6590"/>
<ellipse cx="40.4929" cy="499.361" rx="4.77418" ry="3.84902" fill="#2B6590"/>
<ellipse cx="72.3213" cy="499.361" rx="4.77418" ry="3.84902" fill="#2B6590"/>
<ellipse cx="88.2351" cy="499.361" rx="4.77418" ry="3.84902" fill="#2B6590"/>
<ellipse cx="104.149" cy="499.361" rx="4.77418" ry="3.84902" fill="#2B6590"/>
<ellipse cx="120.064" cy="499.361" rx="4.77418" ry="3.84902" fill="#2B6590"/>
<ellipse cx="135.976" cy="499.361" rx="4.77418" ry="3.84902" fill="#2B6590"/>
<ellipse cx="183.719" cy="499.361" rx="4.77418" ry="3.84902" fill="#2B6590"/>
<ellipse cx="199.633" cy="499.361" rx="4.77418" ry="3.84902" fill="#2B6590"/>
<ellipse cx="215.547" cy="499.361" rx="4.77418" ry="3.84902" fill="#2B6590"/>
<ellipse cx="231.459" cy="499.361" rx="4.77418" ry="3.84902" fill="#2B6590"/>
<ellipse cx="247.374" cy="499.361" rx="4.77418" ry="3.84902" fill="#2B6590"/>
<ellipse cx="263.288" cy="499.361" rx="4.77418" ry="3.84902" fill="#2B6590"/>
<ellipse cx="279.202" cy="499.361" rx="4.77418" ry="3.84902" fill="#2B6590"/>
<ellipse cx="295.116" cy="499.361" rx="4.77418" ry="3.84902" fill="#2B6590"/>
<ellipse cx="311.031" cy="499.361" rx="4.77418" ry="3.84902" fill="#2B6590"/>
<ellipse cx="326.944" cy="499.361" rx="4.77418" ry="3.84902" fill="#2B6590"/>
<ellipse cx="342.858" cy="499.361" rx="4.77418" ry="3.84902" fill="#2B6590"/>
<ellipse cx="358.772" cy="499.361" rx="4.77418" ry="3.84902" fill="#2B6590"/>
<ellipse cx="374.686" cy="499.361" rx="4.77418" ry="3.84902" fill="#2B6590"/>
<ellipse cx="56.4072" cy="512.191" rx="4.77418" ry="3.84902" fill="#2B6590"/>
<ellipse cx="72.3213" cy="512.191" rx="4.77418" ry="3.84902" fill="#2B6590"/>
<ellipse cx="88.2351" cy="512.191" rx="4.77418" ry="3.84902" fill="#2B6590"/>
<ellipse cx="104.149" cy="512.191" rx="4.77418" ry="3.84902" fill="#2B6590"/>
<ellipse cx="120.064" cy="512.191" rx="4.77418" ry="3.84902" fill="#2B6590"/>
<ellipse cx="135.976" cy="512.191" rx="4.77418" ry="3.84902" fill="#2B6590"/>
<ellipse cx="151.891" cy="512.191" rx="4.77418" ry="3.84902" fill="#2B6590"/>
<ellipse cx="167.804" cy="512.191" rx="4.77418" ry="3.84902" fill="#2B6590"/>
<ellipse cx="183.719" cy="512.191" rx="4.77418" ry="3.84902" fill="#2B6590"/>
<ellipse cx="215.547" cy="512.191" rx="4.77418" ry="3.84902" fill="#2B6590"/>
<ellipse cx="231.459" cy="512.191" rx="4.77418" ry="3.84902" fill="#2B6590"/>
<ellipse cx="247.374" cy="512.191" rx="4.77418" ry="3.84902" fill="#2B6590"/>
<ellipse cx="263.288" cy="512.191" rx="4.77418" ry="3.84902" fill="#2B6590"/>
<ellipse cx="279.202" cy="512.191" rx="4.77418" ry="3.84902" fill="#2B6590"/>
<ellipse cx="295.116" cy="512.191" rx="4.77418" ry="3.84902" fill="#2B6590"/>
<ellipse cx="311.031" cy="512.191" rx="4.77418" ry="3.84902" fill="#2B6590"/>
<ellipse cx="326.944" cy="512.191" rx="4.77418" ry="3.84902" fill="#2B6590"/>
<ellipse cx="342.858" cy="512.191" rx="4.77418" ry="3.84902" fill="#2B6590"/>
<ellipse cx="358.772" cy="512.191" rx="4.77418" ry="3.84902" fill="#2B6590"/>
<ellipse cx="374.686" cy="512.191" rx="4.77418" ry="3.84902" fill="#2B6590"/>
<ellipse cx="56.4072" cy="525.021" rx="4.77418" ry="3.84902" fill="#2B6590"/>
<ellipse cx="72.3213" cy="525.021" rx="4.77418" ry="3.84902" fill="#2B6590"/>
<ellipse cx="88.2351" cy="525.021" rx="4.77418" ry="3.84902" fill="#2B6590"/>
<ellipse cx="104.149" cy="525.021" rx="4.77418" ry="3.84902" fill="#2B6590"/>
<ellipse cx="120.064" cy="525.021" rx="4.77418" ry="3.84902" fill="#2B6590"/>
<ellipse cx="135.976" cy="525.021" rx="4.77418" ry="3.84902" fill="#2B6590"/>
<ellipse cx="151.891" cy="525.021" rx="4.77418" ry="3.84902" fill="#2B6590"/>
<ellipse cx="167.804" cy="525.021" rx="4.77418" ry="3.84902" fill="#2B6590"/>
<ellipse cx="183.719" cy="525.021" rx="4.77418" ry="3.84902" fill="#2B6590"/>
<ellipse cx="199.633" cy="525.021" rx="4.77418" ry="3.84902" fill="#2B6590"/>
<ellipse cx="215.547" cy="525.021" rx="4.77418" ry="3.84902" fill="#2B6590"/>
<ellipse cx="247.374" cy="525.021" rx="4.77418" ry="3.84902" fill="#2B6590"/>
<ellipse cx="263.288" cy="525.021" rx="4.77418" ry="3.84902" fill="#2B6590"/>
<ellipse cx="279.202" cy="525.021" rx="4.77418" ry="3.84902" fill="#2B6590"/>
<ellipse cx="295.116" cy="525.021" rx="4.77418" ry="3.84902" fill="#2B6590"/>
<ellipse cx="311.031" cy="525.021" rx="4.77418" ry="3.84902" fill="#2B6590"/>
<ellipse cx="326.944" cy="525.021" rx="4.77418" ry="3.84902" fill="#2B6590"/>
<ellipse cx="342.858" cy="525.021" rx="4.77418" ry="3.84902" fill="#2B6590"/>
<ellipse cx="358.772" cy="525.021" rx="4.77418" ry="3.84902" fill="#2B6590"/>
<ellipse cx="374.686" cy="525.021" rx="4.77418" ry="3.84902" fill="#2B6590"/>
<ellipse cx="56.4072" cy="537.851" rx="4.77418" ry="3.84902" fill="#2B6590"/>
<ellipse cx="72.3213" cy="537.851" rx="4.77418" ry="3.84902" fill="#2B6590"/>
<ellipse cx="88.2351" cy="537.851" rx="4.77418" ry="3.84902" fill="#2B6590"/>
<ellipse cx="104.149" cy="537.851" rx="4.77418" ry="3.84902" fill="#2B6590"/>
<ellipse cx="120.064" cy="537.851" rx="4.77418" ry="3.84902" fill="#2B6590"/>
<ellipse cx="135.976" cy="537.851" rx="4.77418" ry="3.84902" fill="#2B6590"/>
<ellipse cx="151.891" cy="537.851" rx="4.77418" ry="3.84902" fill="#2B6590"/>
<ellipse cx="167.804" cy="537.851" rx="4.77418" ry="3.84902" fill="#2B6590"/>
<ellipse cx="183.719" cy="537.851" rx="4.77418" ry="3.84902" fill="#2B6590"/>
<ellipse cx="199.633" cy="537.851" rx="4.77418" ry="3.84902" fill="#2B6590"/>
<ellipse cx="215.547" cy="537.851" rx="4.77418" ry="3.84902" fill="#2B6590"/>
<ellipse cx="231.459" cy="537.851" rx="4.77418" ry="3.84902" fill="#2B6590"/>
<ellipse cx="263.288" cy="537.851" rx="4.77418" ry="3.84902" fill="#2B6590"/>
<ellipse cx="279.202" cy="537.851" rx="4.77418" ry="3.84902" fill="#2B6590"/>
<ellipse cx="295.116" cy="537.851" rx="4.77418" ry="3.84902" fill="#2B6590"/>
<ellipse cx="311.031" cy="537.851" rx="4.77418" ry="3.84902" fill="#2B6590"/>
<ellipse cx="326.944" cy="537.851" rx="4.77418" ry="3.84902" fill="#2B6590"/>
<ellipse cx="342.858" cy="537.851" rx="4.77418" ry="3.84902" fill="#2B6590"/>
<ellipse cx="358.772" cy="537.851" rx="4.77418" ry="3.84902" fill="#2B6590"/>
<ellipse cx="374.686" cy="537.851" rx="4.77418" ry="3.84902" fill="#2B6590"/>
<ellipse cx="40.4929" cy="550.681" rx="4.77418" ry="3.84902" fill="#2B6590"/>
<ellipse cx="56.4072" cy="550.681" rx="4.77418" ry="3.84902" fill="#2B6590"/>
<ellipse cx="72.3213" cy="550.681" rx="4.77418" ry="3.84902" fill="#2B6590"/>
<ellipse cx="88.2351" cy="550.681" rx="4.77418" ry="3.84902" fill="#2B6590"/>
<ellipse cx="104.149" cy="550.681" rx="4.77418" ry="3.84902" fill="#2B6590"/>
<ellipse cx="120.064" cy="550.681" rx="4.77418" ry="3.84902" fill="#2B6590"/>
<ellipse cx="135.976" cy="550.681" rx="4.77418" ry="3.84902" fill="#2B6590"/>
<ellipse cx="151.891" cy="550.681" rx="4.77418" ry="3.84902" fill="#2B6590"/>
<ellipse cx="167.804" cy="550.681" rx="4.77418" ry="3.84902" fill="#2B6590"/>
<ellipse cx="183.719" cy="550.681" rx="4.77418" ry="3.84902" fill="#2B6590"/>
<ellipse cx="199.633" cy="550.681" rx="4.77418" ry="3.84902" fill="#2B6590"/>
<ellipse cx="215.547" cy="550.681" rx="4.77418" ry="3.84902" fill="#2B6590"/>
<ellipse cx="231.459" cy="550.681" rx="4.77418" ry="3.84902" fill="#2B6590"/>
<ellipse cx="247.374" cy="550.681" rx="4.77418" ry="3.84902" fill="#2B6590"/>
<ellipse cx="263.288" cy="550.681" rx="4.77418" ry="3.84902" fill="#2B6590"/>
<ellipse cx="295.116" cy="550.681" rx="4.77418" ry="3.84902" fill="#2B6590"/>
<ellipse cx="311.031" cy="550.681" rx="4.77418" ry="3.84902" fill="#2B6590"/>
<ellipse cx="326.944" cy="550.681" rx="4.77418" ry="3.84902" fill="#2B6590"/>
<ellipse cx="342.858" cy="550.681" rx="4.77418" ry="3.84902" fill="#2B6590"/>
<ellipse cx="358.772" cy="550.681" rx="4.77418" ry="3.84902" fill="#2B6590"/>
<ellipse cx="374.686" cy="550.681" rx="4.77418" ry="3.84902" fill="#2B6590"/>
<ellipse cx="40.4929" cy="563.511" rx="4.77418" ry="3.84902" fill="#2B6590"/>
<ellipse cx="56.4072" cy="563.511" rx="4.77418" ry="3.84902" fill="#2B6590"/>
<ellipse cx="72.3213" cy="563.511" rx="4.77418" ry="3.84902" fill="#2B6590"/>
<ellipse cx="88.2351" cy="563.511" rx="4.77418" ry="3.84902" fill="#2B6590"/>
<ellipse cx="104.149" cy="563.511" rx="4.77418" ry="3.84902" fill="#2B6590"/>
<ellipse cx="120.064" cy="563.511" rx="4.77418" ry="3.84902" fill="#2B6590"/>
<ellipse cx="135.976" cy="563.511" rx="4.77418" ry="3.84902" fill="#2B6590"/>
<ellipse cx="151.891" cy="563.511" rx="4.77418" ry="3.84902" fill="#2B6590"/>
<ellipse cx="167.804" cy="563.511" rx="4.77418" ry="3.84902" fill="#2B6590"/>
<ellipse cx="183.719" cy="563.511" rx="4.77418" ry="3.84902" fill="#2B6590"/>
<ellipse cx="199.633" cy="563.511" rx="4.77418" ry="3.84902" fill="#2B6590"/>
<ellipse cx="215.547" cy="563.511" rx="4.77418" ry="3.84902" fill="#2B6590"/>
<ellipse cx="231.459" cy="563.511" rx="4.77418" ry="3.84902" fill="#2B6590"/>
<ellipse cx="247.374" cy="563.511" rx="4.77418" ry="3.84902" fill="#2B6590"/>
<ellipse cx="263.288" cy="563.511" rx="4.77418" ry="3.84902" fill="#2B6590"/>
<ellipse cx="279.202" cy="563.511" rx="4.77418" ry="3.84902" fill="#2B6590"/>
<ellipse cx="311.031" cy="563.511" rx="4.77418" ry="3.84902" fill="#2B6590"/>
<ellipse cx="326.944" cy="563.511" rx="4.77418" ry="3.84902" fill="#2B6590"/>
<ellipse cx="342.858" cy="563.511" rx="4.77418" ry="3.84902" fill="#2B6590"/>
<ellipse cx="358.772" cy="563.511" rx="4.77418" ry="3.84902" fill="#2B6590"/>
<ellipse cx="374.686" cy="563.511" rx="4.77418" ry="3.84902" fill="#2B6590"/>
<ellipse cx="40.4929" cy="576.341" rx="4.77418" ry="3.84902" fill="#2B6590"/>
<ellipse cx="56.4072" cy="576.341" rx="4.77418" ry="3.84902" fill="#2B6590"/>
<ellipse cx="72.3213" cy="576.341" rx="4.77418" ry="3.84902" fill="#2B6590"/>
<ellipse cx="88.2351" cy="576.341" rx="4.77418" ry="3.84902" fill="#2B6590"/>
<ellipse cx="104.149" cy="576.341" rx="4.77418" ry="3.84902" fill="#2B6590"/>
<ellipse cx="120.064" cy="576.341" rx="4.77418" ry="3.84902" fill="#2B6590"/>
<ellipse cx="135.976" cy="576.341" rx="4.77418" ry="3.84902" fill="#2B6590"/>
<ellipse cx="151.891" cy="576.341" rx="4.77418" ry="3.84902" fill="#2B6590"/>
<ellipse cx="167.804" cy="576.341" rx="4.77418" ry="3.84902" fill="#2B6590"/>
<ellipse cx="183.719" cy="576.341" rx="4.77418" ry="3.84902" fill="#2B6590"/>
<ellipse cx="199.633" cy="576.341" rx="4.77418" ry="3.84902" fill="#2B6590"/>
<ellipse cx="215.547" cy="576.341" rx="4.77418" ry="3.84902" fill="#2B6590"/>
<ellipse cx="231.459" cy="576.341" rx="4.77418" ry="3.84902" fill="#2B6590"/>
<ellipse cx="247.374" cy="576.341" rx="4.77418" ry="3.84902" fill="#2B6590"/>
<ellipse cx="263.288" cy="576.341" rx="4.77418" ry="3.84902" fill="#2B6590"/>
<ellipse cx="279.202" cy="576.341" rx="4.77418" ry="3.84902" fill="#2B6590"/>
<ellipse cx="295.116" cy="576.341" rx="4.77418" ry="3.84902" fill="#2B6590"/>
<ellipse cx="326.944" cy="576.341" rx="4.77418" ry="3.84902" fill="#2B6590"/>
<ellipse cx="342.858" cy="576.341" rx="4.77418" ry="3.84902" fill="#2B6590"/>
<ellipse cx="358.772" cy="576.341" rx="4.77418" ry="3.84902" fill="#2B6590"/>
<ellipse cx="374.686" cy="576.341" rx="4.77418" ry="3.84902" fill="#2B6590"/>
<ellipse cx="40.4929" cy="589.171" rx="4.77418" ry="3.84902" fill="#2B6590"/>
<ellipse cx="56.4072" cy="589.171" rx="4.77418" ry="3.84902" fill="#2B6590"/>
<ellipse cx="72.3213" cy="589.171" rx="4.77418" ry="3.84902" fill="#2B6590"/>
<ellipse cx="88.2351" cy="589.171" rx="4.77418" ry="3.84902" fill="#2B6590"/>
<ellipse cx="104.149" cy="589.171" rx="4.77418" ry="3.84902" fill="#2B6590"/>
<ellipse cx="120.064" cy="589.171" rx="4.77418" ry="3.84902" fill="#2B6590"/>
<ellipse cx="135.976" cy="589.171" rx="4.77418" ry="3.84902" fill="#2B6590"/>
<ellipse cx="151.891" cy="589.171" rx="4.77418" ry="3.84902" fill="#2B6590"/>
<ellipse cx="167.804" cy="589.171" rx="4.77418" ry="3.84902" fill="#2B6590"/>
<ellipse cx="183.719" cy="589.171" rx="4.77418" ry="3.84902" fill="#2B6590"/>
<ellipse cx="199.633" cy="589.171" rx="4.77418" ry="3.84902" fill="#2B6590"/>
<ellipse cx="215.547" cy="589.171" rx="4.77418" ry="3.84902" fill="#2B6590"/>
<ellipse cx="231.459" cy="589.171" rx="4.77418" ry="3.84902" fill="#2B6590"/>
<ellipse cx="247.374" cy="589.171" rx="4.77418" ry="3.84902" fill="#2B6590"/>
<ellipse cx="263.288" cy="589.171" rx="4.77418" ry="3.84902" fill="#2B6590"/>
<ellipse cx="279.202" cy="589.171" rx="4.77418" ry="3.84902" fill="#2B6590"/>
<ellipse cx="295.116" cy="589.171" rx="4.77418" ry="3.84902" fill="#2B6590"/>
<ellipse cx="311.031" cy="589.171" rx="4.77418" ry="3.84902" fill="#2B6590"/>
<ellipse cx="326.944" cy="589.171" rx="4.77418" ry="3.84902" fill="#2B6590"/>
<ellipse cx="358.772" cy="589.171" rx="4.77418" ry="3.84902" fill="#2B6590"/>
<ellipse cx="374.686" cy="589.171" rx="4.77418" ry="3.84902" fill="#2B6590"/>
<ellipse cx="40.4929" cy="602.001" rx="4.77418" ry="3.84902" fill="#2B6590"/>
<ellipse cx="56.4072" cy="602.001" rx="4.77418" ry="3.84902" fill="#2B6590"/>
<ellipse cx="72.3213" cy="602.001" rx="4.77418" ry="3.84902" fill="#2B6590"/>
<ellipse cx="88.2351" cy="602.001" rx="4.77418" ry="3.84902" fill="#2B6590"/>
<ellipse cx="104.149" cy="602.001" rx="4.77418" ry="3.84902" fill="#2B6590"/>
<ellipse cx="120.064" cy="602.001" rx="4.77418" ry="3.84902" fill="#2B6590"/>
<ellipse cx="135.976" cy="602.001" rx="4.77418" ry="3.84902" fill="#2B6590"/>
<ellipse cx="151.891" cy="602.001" rx="4.77418" ry="3.84902" fill="#2B6590"/>
<ellipse cx="167.804" cy="602.001" rx="4.77418" ry="3.84902" fill="#2B6590"/>
<ellipse cx="183.719" cy="602.001" rx="4.77418" ry="3.84902" fill="#2B6590"/>
<ellipse cx="199.633" cy="602.001" rx="4.77418" ry="3.84902" fill="#2B6590"/>
<ellipse cx="215.547" cy="602.001" rx="4.77418" ry="3.84902" fill="#2B6590"/>
<ellipse cx="231.459" cy="602.001" rx="4.77418" ry="3.84902" fill="#2B6590"/>
<ellipse cx="247.374" cy="602.001" rx="4.77418" ry="3.84902" fill="#2B6590"/>
<ellipse cx="263.288" cy="602.001" rx="4.77418" ry="3.84902" fill="#2B6590"/>
<ellipse cx="279.202" cy="602.001" rx="4.77418" ry="3.84902" fill="#2B6590"/>
<ellipse cx="295.116" cy="602.001" rx="4.77418" ry="3.84902" fill="#2B6590"/>
<ellipse cx="311.031" cy="602.001" rx="4.77418" ry="3.84902" fill="#2B6590"/>
<ellipse cx="326.944" cy="602.001" rx="4.77418" ry="3.84902" fill="#2B6590"/>
<ellipse cx="342.858" cy="602.001" rx="4.77418" ry="3.84902" fill="#2B6590"/>
<ellipse cx="374.686" cy="602.001" rx="4.77418" ry="3.84902" fill="#2B6590"/>
<ellipse cx="40.4929" cy="614.831" rx="4.77418" ry="3.84902" fill="#2B6590"/>
<ellipse cx="56.4072" cy="614.831" rx="4.77418" ry="3.84902" fill="#2B6590"/>
<ellipse cx="72.3213" cy="614.831" rx="4.77418" ry="3.84902" fill="#2B6590"/>
<ellipse cx="88.2351" cy="614.831" rx="4.77418" ry="3.84902" fill="#2B6590"/>
<ellipse cx="104.149" cy="614.831" rx="4.77418" ry="3.84902" fill="#2B6590"/>
<ellipse cx="120.064" cy="614.831" rx="4.77418" ry="3.84902" fill="#2B6590"/>
<ellipse cx="135.976" cy="614.831" rx="4.77418" ry="3.84902" fill="#2B6590"/>
<ellipse cx="151.891" cy="614.831" rx="4.77418" ry="3.84902" fill="#2B6590"/>
<ellipse cx="167.804" cy="614.831" rx="4.77418" ry="3.84902" fill="#2B6590"/>
<ellipse cx="183.719" cy="614.831" rx="4.77418" ry="3.84902" fill="#2B6590"/>
<ellipse cx="199.633" cy="614.831" rx="4.77418" ry="3.84902" fill="#2B6590"/>
<ellipse cx="215.547" cy="614.831" rx="4.77418" ry="3.84902" fill="#2B6590"/>
<ellipse cx="231.459" cy="614.831" rx="4.77418" ry="3.84902" fill="#2B6590"/>
<ellipse cx="247.374" cy="614.831" rx="4.77418" ry="3.84902" fill="#2B6590"/>
<ellipse cx="263.288" cy="614.831" rx="4.77418" ry="3.84902" fill="#2B6590"/>
<ellipse cx="279.202" cy="614.831" rx="4.77418" ry="3.84902" fill="#2B6590"/>
<ellipse cx="295.116" cy="614.831" rx="4.77418" ry="3.84902" fill="#2B6590"/>
<ellipse cx="311.031" cy="614.831" rx="4.77418" ry="3.84902" fill="#2B6590"/>
<ellipse cx="326.944" cy="614.831" rx="4.77418" ry="3.84902" fill="#2B6590"/>
<ellipse cx="342.858" cy="614.831" rx="4.77418" ry="3.84902" fill="#2B6590"/>
<ellipse cx="358.772" cy="614.831" rx="4.77418" ry="3.84902" fill="#2B6590"/>
<ellipse cx="374.686" cy="614.831" rx="4.77418" ry="3.84902" fill="#2B6590"/>
<ellipse cx="40.4929" cy="627.661" rx="4.77418" ry="3.84902" fill="#2B6590"/>
<ellipse cx="56.4072" cy="627.661" rx="4.77418" ry="3.84902" fill="#2B6590"/>
<ellipse cx="72.3213" cy="627.661" rx="4.77418" ry="3.84902" fill="#2B6590"/>
<ellipse cx="88.2351" cy="627.661" rx="4.77418" ry="3.84902" fill="#2B6590"/>
<ellipse cx="104.149" cy="627.661" rx="4.77418" ry="3.84902" fill="#2B6590"/>
<ellipse cx="120.064" cy="627.661" rx="4.77418" ry="3.84902" fill="#2B6590"/>
<ellipse cx="135.976" cy="627.661" rx="4.77418" ry="3.84902" fill="#2B6590"/>
<ellipse cx="151.891" cy="627.661" rx="4.77418" ry="3.84902" fill="#2B6590"/>
<ellipse cx="167.804" cy="627.661" rx="4.77418" ry="3.84902" fill="#2B6590"/>
<ellipse cx="183.719" cy="627.661" rx="4.77418" ry="3.84902" fill="#2B6590"/>
<ellipse cx="199.633" cy="627.661" rx="4.77418" ry="3.84902" fill="#2B6590"/>
<ellipse cx="215.547" cy="627.661" rx="4.77418" ry="3.84902" fill="#2B6590"/>
<ellipse cx="231.459" cy="627.661" rx="4.77418" ry="3.84902" fill="#2B6590"/>
<ellipse cx="247.374" cy="627.661" rx="4.77418" ry="3.84902" fill="#2B6590"/>
<ellipse cx="263.288" cy="627.661" rx="4.77418" ry="3.84902" fill="#2B6590"/>
<ellipse cx="279.202" cy="627.661" rx="4.77418" ry="3.84902" fill="#2B6590"/>
<ellipse cx="295.116" cy="627.661" rx="4.77418" ry="3.84902" fill="#2B6590"/>
<ellipse cx="311.031" cy="627.661" rx="4.77418" ry="3.84902" fill="#2B6590"/>
<ellipse cx="326.944" cy="627.661" rx="4.77418" ry="3.84902" fill="#2B6590"/>
<ellipse cx="342.858" cy="627.661" rx="4.77418" ry="3.84902" fill="#2B6590"/>
<ellipse cx="358.772" cy="627.661" rx="4.77418" ry="3.84902" fill="#2B6590"/>
<ellipse cx="40.4929" cy="640.492" rx="4.77418" ry="3.84902" fill="#2B6590"/>
<ellipse cx="56.4072" cy="640.492" rx="4.77418" ry="3.84902" fill="#2B6590"/>
<ellipse cx="72.3213" cy="640.492" rx="4.77418" ry="3.84902" fill="#2B6590"/>
<ellipse cx="88.2351" cy="640.492" rx="4.77418" ry="3.84902" fill="#2B6590"/>
<ellipse cx="104.149" cy="640.492" rx="4.77418" ry="3.84902" fill="#2B6590"/>
<ellipse cx="120.064" cy="640.492" rx="4.77418" ry="3.84902" fill="#2B6590"/>
<ellipse cx="135.976" cy="640.492" rx="4.77418" ry="3.84902" fill="#2B6590"/>
<ellipse cx="151.891" cy="640.492" rx="4.77418" ry="3.84902" fill="#2B6590"/>
<ellipse cx="167.804" cy="640.492" rx="4.77418" ry="3.84902" fill="#2B6590"/>
<ellipse cx="183.719" cy="640.492" rx="4.77418" ry="3.84902" fill="#2B6590"/>
<ellipse cx="199.633" cy="640.492" rx="4.77418" ry="3.84902" fill="#2B6590"/>
<ellipse cx="215.547" cy="640.492" rx="4.77418" ry="3.84902" fill="#2B6590"/>
<ellipse cx="231.459" cy="640.492" rx="4.77418" ry="3.84902" fill="#2B6590"/>
<ellipse cx="247.374" cy="640.492" rx="4.77418" ry="3.84902" fill="#2B6590"/>
<ellipse cx="263.288" cy="640.492" rx="4.77418" ry="3.84902" fill="#2B6590"/>
<ellipse cx="279.202" cy="640.492" rx="4.77418" ry="3.84902" fill="#2B6590"/>
<ellipse cx="295.116" cy="640.492" rx="4.77418" ry="3.84902" fill="#2B6590"/>
<ellipse cx="311.031" cy="640.492" rx="4.77418" ry="3.84902" fill="#2B6590"/>
<ellipse cx="326.944" cy="640.492" rx="4.77418" ry="3.84902" fill="#2B6590"/>
<ellipse cx="342.858" cy="640.492" rx="4.77418" ry="3.84902" fill="#2B6590"/>
<ellipse cx="358.772" cy="640.492" rx="4.77418" ry="3.84902" fill="#2B6590"/>
<ellipse cx="40.4929" cy="653.321" rx="4.77418" ry="3.84902" fill="#2B6590"/>
<ellipse cx="56.4072" cy="653.321" rx="4.77418" ry="3.84902" fill="#2B6590"/>
<ellipse cx="72.3213" cy="653.321" rx="4.77418" ry="3.84902" fill="#2B6590"/>
<ellipse cx="88.2351" cy="653.321" rx="4.77418" ry="3.84902" fill="#2B6590"/>
<ellipse cx="104.149" cy="653.321" rx="4.77418" ry="3.84902" fill="#2B6590"/>
<ellipse cx="120.064" cy="653.321" rx="4.77418" ry="3.84902" fill="#2B6590"/>
<ellipse cx="135.976" cy="653.321" rx="4.77418" ry="3.84902" fill="#2B6590"/>
<ellipse cx="151.891" cy="653.321" rx="4.77418" ry="3.84902" fill="#2B6590"/>
<ellipse cx="167.804" cy="653.321" rx="4.77418" ry="3.84902" fill="#2B6590"/>
<ellipse cx="183.719" cy="653.321" rx="4.77418" ry="3.84902" fill="#2B6590"/>
<ellipse cx="199.633" cy="653.321" rx="4.77418" ry="3.84902" fill="#2B6590"/>
<ellipse cx="215.547" cy="653.321" rx="4.77418" ry="3.84902" fill="#2B6590"/>
<ellipse cx="231.459" cy="653.321" rx="4.77418" ry="3.84902" fill="#2B6590"/>
<ellipse cx="247.374" cy="653.321" rx="4.77418" ry="3.84902" fill="#2B6590"/>
<ellipse cx="263.288" cy="653.321" rx="4.77418" ry="3.84902" fill="#2B6590"/>
<ellipse cx="279.202" cy="653.321" rx="4.77418" ry="3.84902" fill="#2B6590"/>
<ellipse cx="295.116" cy="653.321" rx="4.77418" ry="3.84902" fill="#2B6590"/>
<ellipse cx="311.031" cy="653.321" rx="4.77418" ry="3.84902" fill="#2B6590"/>
<ellipse cx="326.944" cy="653.321" rx="4.77418" ry="3.84902" fill="#2B6590"/>
<ellipse cx="342.858" cy="653.321" rx="4.77418" ry="3.84902" fill="#2B6590"/>
<ellipse cx="358.772" cy="653.321" rx="4.77418" ry="3.84902" fill="#2B6590"/>
<ellipse cx="374.686" cy="653.321" rx="4.77418" ry="3.84902" fill="#2B6590"/>
<ellipse cx="40.4929" cy="666.152" rx="4.77418" ry="3.84902" fill="#2B6590"/>
<ellipse cx="56.4072" cy="666.152" rx="4.77418" ry="3.84902" fill="#2B6590"/>
<ellipse cx="72.3213" cy="666.152" rx="4.77418" ry="3.84902" fill="#2B6590"/>
<ellipse cx="88.2351" cy="666.152" rx="4.77418" ry="3.84902" fill="#2B6590"/>
<ellipse cx="104.149" cy="666.152" rx="4.77418" ry="3.84902" fill="#2B6590"/>
<ellipse cx="120.064" cy="666.152" rx="4.77418" ry="3.84902" fill="#2B6590"/>
<ellipse cx="135.976" cy="666.152" rx="4.77418" ry="3.84902" fill="#2B6590"/>
<ellipse cx="151.891" cy="666.152" rx="4.77418" ry="3.84902" fill="#2B6590"/>
<ellipse cx="167.804" cy="666.152" rx="4.77418" ry="3.84902" fill="#2B6590"/>
<ellipse cx="183.719" cy="666.152" rx="4.77418" ry="3.84902" fill="#2B6590"/>
<ellipse cx="199.633" cy="666.152" rx="4.77418" ry="3.84902" fill="#2B6590"/>
<ellipse cx="215.547" cy="666.152" rx="4.77418" ry="3.84902" fill="#2B6590"/>
<ellipse cx="231.459" cy="666.152" rx="4.77418" ry="3.84902" fill="#2B6590"/>
<ellipse cx="247.374" cy="666.152" rx="4.77418" ry="3.84902" fill="#2B6590"/>
<ellipse cx="263.288" cy="666.152" rx="4.77418" ry="3.84902" fill="#2B6590"/>
<ellipse cx="279.202" cy="666.152" rx="4.77418" ry="3.84902" fill="#2B6590"/>
<ellipse cx="295.116" cy="666.152" rx="4.77418" ry="3.84902" fill="#2B6590"/>
<ellipse cx="311.031" cy="666.152" rx="4.77418" ry="3.84902" fill="#2B6590"/>
<ellipse cx="326.944" cy="666.152" rx="4.77418" ry="3.84902" fill="#2B6590"/>
<ellipse cx="342.858" cy="666.152" rx="4.77418" ry="3.84902" fill="#2B6590"/>
<ellipse cx="358.772" cy="666.152" rx="4.77418" ry="3.84902" fill="#2B6590"/>
<ellipse cx="40.4929" cy="678.982" rx="4.77418" ry="3.84902" fill="#2B6590"/>
<ellipse cx="56.4072" cy="678.982" rx="4.77418" ry="3.84902" fill="#2B6590"/>
<ellipse cx="72.3213" cy="678.982" rx="4.77418" ry="3.84902" fill="#2B6590"/>
<ellipse cx="88.2351" cy="678.982" rx="4.77418" ry="3.84902" fill="#2B6590"/>
<ellipse cx="104.149" cy="678.982" rx="4.77418" ry="3.84902" fill="#2B6590"/>
<ellipse cx="120.064" cy="678.982" rx="4.77418" ry="3.84902" fill="#2B6590"/>
<ellipse cx="135.976" cy="678.982" rx="4.77418" ry="3.84902" fill="#2B6590"/>
<ellipse cx="151.891" cy="678.982" rx="4.77418" ry="3.84902" fill="#2B6590"/>
<ellipse cx="167.804" cy="678.982" rx="4.77418" ry="3.84902" fill="#2B6590"/>
<ellipse cx="183.719" cy="678.982" rx="4.77418" ry="3.84902" fill="#2B6590"/>
<ellipse cx="199.633" cy="678.982" rx="4.77418" ry="3.84902" fill="#2B6590"/>
<ellipse cx="215.547" cy="678.982" rx="4.77418" ry="3.84902" fill="#2B6590"/>
<ellipse cx="231.459" cy="678.982" rx="4.77418" ry="3.84902" fill="#2B6590"/>
<ellipse cx="247.374" cy="678.982" rx="4.77418" ry="3.84902" fill="#2B6590"/>
<ellipse cx="263.288" cy="678.982" rx="4.77418" ry="3.84902" fill="#2B6590"/>
<ellipse cx="279.202" cy="678.982" rx="4.77418" ry="3.84902" fill="#2B6590"/>
<ellipse cx="295.116" cy="678.982" rx="4.77418" ry="3.84902" fill="#2B6590"/>
<ellipse cx="311.031" cy="678.982" rx="4.77418" ry="3.84902" fill="#2B6590"/>
<ellipse cx="326.944" cy="678.982" rx="4.77418" ry="3.84902" fill="#2B6590"/>
<ellipse cx="342.858" cy="678.982" rx="4.77418" ry="3.84902" fill="#2B6590"/>
<ellipse cx="358.772" cy="678.982" rx="4.77418" ry="3.84902" fill="#2B6590"/>
<ellipse cx="40.4929" cy="691.812" rx="4.77418" ry="3.84902" fill="#2B6590"/>
<ellipse cx="56.4072" cy="691.812" rx="4.77418" ry="3.84902" fill="#2B6590"/>
<ellipse cx="72.3213" cy="691.812" rx="4.77418" ry="3.84902" fill="#2B6590"/>
<ellipse cx="88.2351" cy="691.812" rx="4.77418" ry="3.84902" fill="#2B6590"/>
<ellipse cx="104.149" cy="691.812" rx="4.77418" ry="3.84902" fill="#2B6590"/>
<ellipse cx="120.064" cy="691.812" rx="4.77418" ry="3.84902" fill="#2B6590"/>
<ellipse cx="135.976" cy="691.812" rx="4.77418" ry="3.84902" fill="#2B6590"/>
<ellipse cx="151.891" cy="691.812" rx="4.77418" ry="3.84902" fill="#2B6590"/>
<ellipse cx="167.804" cy="691.812" rx="4.77418" ry="3.84902" fill="#2B6590"/>
<ellipse cx="183.719" cy="691.812" rx="4.77418" ry="3.84902" fill="#2B6590"/>
<ellipse cx="199.633" cy="691.812" rx="4.77418" ry="3.84902" fill="#2B6590"/>
<ellipse cx="215.547" cy="691.812" rx="4.77418" ry="3.84902" fill="#2B6590"/>
<ellipse cx="231.459" cy="691.812" rx="4.77418" ry="3.84902" fill="#2B6590"/>
<ellipse cx="247.374" cy="691.812" rx="4.77418" ry="3.84902" fill="#2B6590"/>
<ellipse cx="263.288" cy="691.812" rx="4.77418" ry="3.84902" fill="#2B6590"/>
<ellipse cx="279.202" cy="691.812" rx="4.77418" ry="3.84902" fill="#2B6590"/>
<ellipse cx="295.116" cy="691.812" rx="4.77418" ry="3.84902" fill="#2B6590"/>
<ellipse cx="311.031" cy="691.812" rx="4.77418" ry="3.84902" fill="#2B6590"/>
<ellipse cx="326.944" cy="691.812" rx="4.77418" ry="3.84902" fill="#2B6590"/>
<ellipse cx="342.858" cy="691.812" rx="4.77418" ry="3.84902" fill="#2B6590"/>
<ellipse cx="358.772" cy="691.812" rx="4.77418" ry="3.84902" fill="#2B6590"/>
<ellipse cx="374.686" cy="691.812" rx="4.77418" ry="3.84902" fill="#2B6590"/>
<ellipse cx="40.4929" cy="704.642" rx="4.77418" ry="3.84902" fill="#2B6590"/>
<ellipse cx="56.4072" cy="704.642" rx="4.77418" ry="3.84902" fill="#2B6590"/>
<ellipse cx="72.3213" cy="704.642" rx="4.77418" ry="3.84902" fill="#2B6590"/>
<ellipse cx="88.2351" cy="704.642" rx="4.77418" ry="3.84902" fill="#2B6590"/>
<ellipse cx="104.149" cy="704.642" rx="4.77418" ry="3.84902" fill="#2B6590"/>
<ellipse cx="120.064" cy="704.642" rx="4.77418" ry="3.84902" fill="#2B6590"/>
<ellipse cx="135.976" cy="704.642" rx="4.77418" ry="3.84902" fill="#2B6590"/>
<ellipse cx="151.891" cy="704.642" rx="4.77418" ry="3.84902" fill="#2B6590"/>
<ellipse cx="167.804" cy="704.642" rx="4.77418" ry="3.84902" fill="#2B6590"/>
<ellipse cx="183.719" cy="704.642" rx="4.77418" ry="3.84902" fill="#2B6590"/>
<ellipse cx="199.633" cy="704.642" rx="4.77418" ry="3.84902" fill="#2B6590"/>
<ellipse cx="215.547" cy="704.642" rx="4.77418" ry="3.84902" fill="#2B6590"/>
<ellipse cx="231.459" cy="704.642" rx="4.77418" ry="3.84902" fill="#2B6590"/>
<ellipse cx="247.374" cy="704.642" rx="4.77418" ry="3.84902" fill="#2B6590"/>
<ellipse cx="263.288" cy="704.642" rx="4.77418" ry="3.84902" fill="#2B6590"/>
<ellipse cx="279.202" cy="704.642" rx="4.77418" ry="3.84902" fill="#2B6590"/>
<ellipse cx="295.116" cy="704.642" rx="4.77418" ry="3.84902" fill="#2B6590"/>
<ellipse cx="311.031" cy="704.642" rx="4.77418" ry="3.84902" fill="#2B6590"/>
<ellipse cx="326.944" cy="704.642" rx="4.77418" ry="3.84902" fill="#2B6590"/>
<ellipse cx="342.858" cy="704.642" rx="4.77418" ry="3.84902" fill="#2B6590"/>
<ellipse cx="358.772" cy="704.642" rx="4.77418" ry="3.84902" fill="#2B6590"/>
<ellipse cx="374.686" cy="704.642" rx="4.77418" ry="3.84902" fill="#2B6590"/>
<ellipse cx="40.4929" cy="717.472" rx="4.77418" ry="3.84902" fill="#2B6590"/>
<ellipse cx="56.4072" cy="717.472" rx="4.77418" ry="3.84902" fill="#2B6590"/>
<ellipse cx="72.3213" cy="717.472" rx="4.77418" ry="3.84902" fill="#2B6590"/>
<ellipse cx="88.2351" cy="717.472" rx="4.77418" ry="3.84902" fill="#2B6590"/>
<ellipse cx="104.149" cy="717.472" rx="4.77418" ry="3.84902" fill="#2B6590"/>
<ellipse cx="120.064" cy="717.472" rx="4.77418" ry="3.84902" fill="#2B6590"/>
<ellipse cx="135.976" cy="717.472" rx="4.77418" ry="3.84902" fill="#2B6590"/>
<ellipse cx="151.891" cy="717.472" rx="4.77418" ry="3.84902" fill="#2B6590"/>
<ellipse cx="167.804" cy="717.472" rx="4.77418" ry="3.84902" fill="#2B6590"/>
<ellipse cx="183.719" cy="717.472" rx="4.77418" ry="3.84902" fill="#2B6590"/>
<ellipse cx="199.633" cy="717.472" rx="4.77418" ry="3.84902" fill="#2B6590"/>
<ellipse cx="215.547" cy="717.472" rx="4.77418" ry="3.84902" fill="#2B6590"/>
<ellipse cx="231.459" cy="717.472" rx="4.77418" ry="3.84902" fill="#2B6590"/>
<ellipse cx="247.374" cy="717.472" rx="4.77418" ry="3.84902" fill="#2B6590"/>
<ellipse cx="263.288" cy="717.472" rx="4.77418" ry="3.84902" fill="#2B6590"/>
<ellipse cx="279.202" cy="717.472" rx="4.77418" ry="3.84902" fill="#2B6590"/>
<ellipse cx="295.116" cy="717.472" rx="4.77418" ry="3.84902" fill="#2B6590"/>
<ellipse cx="311.031" cy="717.472" rx="4.77418" ry="3.84902" fill="#2B6590"/>
<ellipse cx="326.944" cy="717.472" rx="4.77418" ry="3.84902" fill="#2B6590"/>
<ellipse cx="342.858" cy="717.472" rx="4.77418" ry="3.84902" fill="#2B6590"/>
<ellipse cx="358.772" cy="717.472" rx="4.77418" ry="3.84902" fill="#2B6590"/>
<ellipse cx="374.686" cy="717.472" rx="4.77418" ry="3.84902" fill="#2B6590"/>
<ellipse cx="40.4929" cy="730.302" rx="4.77418" ry="3.84902" fill="#2B6590"/>
<ellipse cx="56.4072" cy="730.302" rx="4.77418" ry="3.84902" fill="#2B6590"/>
<ellipse cx="72.3213" cy="730.302" rx="4.77418" ry="3.84902" fill="#2B6590"/>
<ellipse cx="88.2351" cy="730.302" rx="4.77418" ry="3.84902" fill="#2B6590"/>
<ellipse cx="104.149" cy="730.302" rx="4.77418" ry="3.84902" fill="#2B6590"/>
<ellipse cx="120.064" cy="730.302" rx="4.77418" ry="3.84902" fill="#2B6590"/>
<ellipse cx="135.976" cy="730.302" rx="4.77418" ry="3.84902" fill="#2B6590"/>
<ellipse cx="151.891" cy="730.302" rx="4.77418" ry="3.84902" fill="#2B6590"/>
<ellipse cx="167.804" cy="730.302" rx="4.77418" ry="3.84902" fill="#2B6590"/>
<ellipse cx="183.719" cy="730.302" rx="4.77418" ry="3.84902" fill="#2B6590"/>
<ellipse cx="199.633" cy="730.302" rx="4.77418" ry="3.84902" fill="#2B6590"/>
<ellipse cx="215.547" cy="730.302" rx="4.77418" ry="3.84902" fill="#2B6590"/>
<ellipse cx="231.459" cy="730.302" rx="4.77418" ry="3.84902" fill="#2B6590"/>
<ellipse cx="247.374" cy="730.302" rx="4.77418" ry="3.84902" fill="#2B6590"/>
<ellipse cx="263.288" cy="730.302" rx="4.77418" ry="3.84902" fill="#2B6590"/>
<ellipse cx="279.202" cy="730.302" rx="4.77418" ry="3.84902" fill="#2B6590"/>
<ellipse cx="295.116" cy="730.302" rx="4.77418" ry="3.84902" fill="#2B6590"/>
<ellipse cx="311.031" cy="730.302" rx="4.77418" ry="3.84902" fill="#2B6590"/>
<ellipse cx="326.944" cy="730.302" rx="4.77418" ry="3.84902" fill="#2B6590"/>
<ellipse cx="342.858" cy="730.302" rx="4.77418" ry="3.84902" fill="#2B6590"/>
<ellipse cx="358.772" cy="730.302" rx="4.77418" ry="3.84902" fill="#2B6590"/>
<ellipse cx="374.686" cy="730.302" rx="4.77418" ry="3.84902" fill="#2B6590"/>
<ellipse cx="40.4929" cy="743.132" rx="4.77418" ry="3.84902" fill="#2B6590"/>
<ellipse cx="56.4072" cy="743.132" rx="4.77418" ry="3.84902" fill="#2B6590"/>
<ellipse cx="72.3213" cy="743.132" rx="4.77418" ry="3.84902" fill="#2B6590"/>
<ellipse cx="88.2351" cy="743.132" rx="4.77418" ry="3.84902" fill="#2B6590"/>
<ellipse cx="104.149" cy="743.132" rx="4.77418" ry="3.84902" fill="#2B6590"/>
<ellipse cx="120.064" cy="743.132" rx="4.77418" ry="3.84902" fill="#2B6590"/>
<ellipse cx="135.976" cy="743.132" rx="4.77418" ry="3.84902" fill="#2B6590"/>
<ellipse cx="151.891" cy="743.132" rx="4.77418" ry="3.84902" fill="#2B6590"/>
<ellipse cx="167.804" cy="743.132" rx="4.77418" ry="3.84902" fill="#2B6590"/>
<ellipse cx="183.719" cy="743.132" rx="4.77418" ry="3.84902" fill="#2B6590"/>
<ellipse cx="199.633" cy="743.132" rx="4.77418" ry="3.84902" fill="#2B6590"/>
<ellipse cx="215.547" cy="743.132" rx="4.77418" ry="3.84902" fill="#2B6590"/>
<ellipse cx="231.459" cy="743.132" rx="4.77418" ry="3.84902" fill="#2B6590"/>
<ellipse cx="247.374" cy="743.132" rx="4.77418" ry="3.84902" fill="#2B6590"/>
<ellipse cx="263.288" cy="743.132" rx="4.77418" ry="3.84902" fill="#2B6590"/>
<ellipse cx="279.202" cy="743.132" rx="4.77418" ry="3.84902" fill="#2B6590"/>
<ellipse cx="295.116" cy="743.132" rx="4.77418" ry="3.84902" fill="#2B6590"/>
<ellipse cx="311.031" cy="743.132" rx="4.77418" ry="3.84902" fill="#2B6590"/>
<ellipse cx="326.944" cy="743.132" rx="4.77418" ry="3.84902" fill="#2B6590"/>
<ellipse cx="342.858" cy="743.132" rx="4.77418" ry="3.84902" fill="#2B6590"/>
<ellipse cx="358.772" cy="743.132" rx="4.77418" ry="3.84902" fill="#2B6590"/>
<ellipse cx="374.686" cy="743.132" rx="4.77418" ry="3.84902" fill="#2B6590"/>
<ellipse cx="40.4929" cy="755.962" rx="4.77418" ry="3.84902" fill="#2B6590"/>
<ellipse cx="56.4072" cy="755.962" rx="4.77418" ry="3.84902" fill="#2B6590"/>
<ellipse cx="72.3213" cy="755.962" rx="4.77418" ry="3.84902" fill="#2B6590"/>
<ellipse cx="88.2351" cy="755.962" rx="4.77418" ry="3.84902" fill="#2B6590"/>
<ellipse cx="104.149" cy="755.962" rx="4.77418" ry="3.84902" fill="#2B6590"/>
<ellipse cx="120.064" cy="755.962" rx="4.77418" ry="3.84902" fill="#2B6590"/>
<ellipse cx="135.976" cy="755.962" rx="4.77418" ry="3.84902" fill="#2B6590"/>
<ellipse cx="151.891" cy="755.962" rx="4.77418" ry="3.84902" fill="#2B6590"/>
<ellipse cx="167.804" cy="755.962" rx="4.77418" ry="3.84902" fill="#2B6590"/>
<ellipse cx="183.719" cy="755.962" rx="4.77418" ry="3.84902" fill="#2B6590"/>
<ellipse cx="199.633" cy="755.962" rx="4.77418" ry="3.84902" fill="#2B6590"/>
<ellipse cx="215.547" cy="755.962" rx="4.77418" ry="3.84902" fill="#2B6590"/>
<ellipse cx="231.459" cy="755.962" rx="4.77418" ry="3.84902" fill="#2B6590"/>
<ellipse cx="247.374" cy="755.962" rx="4.77418" ry="3.84902" fill="#2B6590"/>
<ellipse cx="263.288" cy="755.962" rx="4.77418" ry="3.84902" fill="#2B6590"/>
<ellipse cx="279.202" cy="755.962" rx="4.77418" ry="3.84902" fill="#2B6590"/>
<ellipse cx="295.116" cy="755.962" rx="4.77418" ry="3.84902" fill="#2B6590"/>
<ellipse cx="311.031" cy="755.962" rx="4.77418" ry="3.84902" fill="#2B6590"/>
<ellipse cx="326.944" cy="755.962" rx="4.77418" ry="3.84902" fill="#2B6590"/>
<ellipse cx="342.858" cy="755.962" rx="4.77418" ry="3.84902" fill="#2B6590"/>
<ellipse cx="358.772" cy="755.962" rx="4.77418" ry="3.84902" fill="#2B6590"/>
<ellipse cx="374.686" cy="755.962" rx="4.77418" ry="3.84902" fill="#2B6590"/>
<ellipse cx="40.4929" cy="768.792" rx="4.77418" ry="3.84902" fill="#2B6590"/>
<ellipse cx="56.4072" cy="768.792" rx="4.77418" ry="3.84902" fill="#2B6590"/>
<ellipse cx="72.3213" cy="768.792" rx="4.77418" ry="3.84902" fill="#2B6590"/>
<ellipse cx="88.2351" cy="768.792" rx="4.77418" ry="3.84902" fill="#2B6590"/>
<ellipse cx="104.149" cy="768.792" rx="4.77418" ry="3.84902" fill="#2B6590"/>
<ellipse cx="120.064" cy="768.792" rx="4.77418" ry="3.84902" fill="#2B6590"/>
<ellipse cx="135.976" cy="768.792" rx="4.77418" ry="3.84902" fill="#2B6590"/>
<ellipse cx="151.891" cy="768.792" rx="4.77418" ry="3.84902" fill="#2B6590"/>
<ellipse cx="167.804" cy="768.792" rx="4.77418" ry="3.84902" fill="#2B6590"/>
<ellipse cx="183.719" cy="768.792" rx="4.77418" ry="3.84902" fill="#2B6590"/>
<ellipse cx="199.633" cy="768.792" rx="4.77418" ry="3.84902" fill="#2B6590"/>
<ellipse cx="215.547" cy="768.792" rx="4.77418" ry="3.84902" fill="#2B6590"/>
<ellipse cx="231.459" cy="768.792" rx="4.77418" ry="3.84902" fill="#2B6590"/>
<ellipse cx="247.374" cy="768.792" rx="4.77418" ry="3.84902" fill="#2B6590"/>
<ellipse cx="263.288" cy="768.792" rx="4.77418" ry="3.84902" fill="#2B6590"/>
<ellipse cx="279.202" cy="768.792" rx="4.77418" ry="3.84902" fill="#2B6590"/>
<ellipse cx="295.116" cy="768.792" rx="4.77418" ry="3.84902" fill="#2B6590"/>
<ellipse cx="311.031" cy="768.792" rx="4.77418" ry="3.84902" fill="#2B6590"/>
<ellipse cx="326.944" cy="768.792" rx="4.77418" ry="3.84902" fill="#2B6590"/>
<ellipse cx="342.858" cy="768.792" rx="4.77418" ry="3.84902" fill="#2B6590"/>
<ellipse cx="358.772" cy="768.792" rx="4.77418" ry="3.84902" fill="#2B6590"/>
<ellipse cx="374.686" cy="768.792" rx="4.77418" ry="3.84902" fill="#2B6590"/>
<ellipse cx="40.4929" cy="781.622" rx="4.77418" ry="3.84902" fill="#2B6590"/>
<ellipse cx="56.4072" cy="781.622" rx="4.77418" ry="3.84902" fill="#2B6590"/>
<ellipse cx="72.3213" cy="781.622" rx="4.77418" ry="3.84902" fill="#2B6590"/>
<ellipse cx="88.2351" cy="781.622" rx="4.77418" ry="3.84902" fill="#2B6590"/>
<ellipse cx="104.149" cy="781.622" rx="4.77418" ry="3.84902" fill="#2B6590"/>
<ellipse cx="120.064" cy="781.622" rx="4.77418" ry="3.84902" fill="#2B6590"/>
<ellipse cx="135.976" cy="781.622" rx="4.77418" ry="3.84902" fill="#2B6590"/>
<ellipse cx="151.891" cy="781.622" rx="4.77418" ry="3.84902" fill="#2B6590"/>
<ellipse cx="167.804" cy="781.622" rx="4.77418" ry="3.84902" fill="#2B6590"/>
<ellipse cx="183.719" cy="781.622" rx="4.77418" ry="3.84902" fill="#2B6590"/>
<ellipse cx="199.633" cy="781.622" rx="4.77418" ry="3.84902" fill="#2B6590"/>
<ellipse cx="215.547" cy="781.622" rx="4.77418" ry="3.84902" fill="#2B6590"/>
<ellipse cx="231.459" cy="781.622" rx="4.77418" ry="3.84902" fill="#2B6590"/>
<ellipse cx="247.374" cy="781.622" rx="4.77418" ry="3.84902" fill="#2B6590"/>
<ellipse cx="263.288" cy="781.622" rx="4.77418" ry="3.84902" fill="#2B6590"/>
<ellipse cx="279.202" cy="781.622" rx="4.77418" ry="3.84902" fill="#2B6590"/>
<ellipse cx="295.116" cy="781.622" rx="4.77418" ry="3.84902" fill="#2B6590"/>
<ellipse cx="311.031" cy="781.622" rx="4.77418" ry="3.84902" fill="#2B6590"/>
<ellipse cx="326.944" cy="781.622" rx="4.77418" ry="3.84902" fill="#2B6590"/>
<ellipse cx="342.858" cy="781.622" rx="4.77418" ry="3.84902" fill="#2B6590"/>
<ellipse cx="358.772" cy="781.622" rx="4.77418" ry="3.84902" fill="#2B6590"/>
<ellipse cx="374.686" cy="781.622" rx="4.77418" ry="3.84902" fill="#2B6590"/>
</g>
<g opacity="0.91" filter="url(#filter1_d_9_50)">
<path d="M338.226 631.507C112.642 472.169 29.6283 555.809 20.5139 566.372C19.9278 567.052 19.6596 567.906 19.67 568.803L20.7028 658.377C22.4323 808.373 148.179 939.353 287.302 883.258C346.323 859.461 398.564 822.804 422.525 766.379C459.603 679.066 356.734 644.581 338.226 631.507Z" fill="#2B6590"/>
</g>
<defs>
<filter id="filter0_d_9_50" x="2.52881" y="499.077" width="523.654" height="474.266" filterUnits="userSpaceOnUse" color-interpolation-filters="sRGB">
<feFlood flood-opacity="0" result="BackgroundImageFix"/>
<feColorMatrix in="SourceAlpha" type="matrix" values="0 0 0 0 0 0 0 0 0 0 0 0 0 0 0 0 0 0 127 0" result="hardAlpha"/>
<feOffset dx="20.4354" dy="20.4354"/>
<feGaussianBlur stdDeviation="28.2009"/>
<feColorMatrix type="matrix" values="0 0 0 0 0 0 0 0 0 0 0 0 0 0 0 0 0 0 0.04 0"/>
<feBlend mode="normal" in2="BackgroundImageFix" result="effect1_dropShadow_9_50"/>
<feBlend mode="normal" in="SourceGraphic" in2="effect1_dropShadow_9_50" result="shape"/>
</filter>
<filter id="filter1_d_9_50" x="-16.2966" y="499.077" width="523.654" height="474.266" filterUnits="userSpaceOnUse" color-interpolation-filters="sRGB">
<feFlood flood-opacity="0" result="BackgroundImageFix"/>
<feColorMatrix in="SourceAlpha" type="matrix" values="0 0 0 0 0 0 0 0 0 0 0 0 0 0 0 0 0 0 127 0" result="hardAlpha"/>
<feOffset dx="20.4354" dy="20.4354"/>
<feGaussianBlur stdDeviation="28.2009"/>
<feColorMatrix type="matrix" values="0 0 0 0 0 0 0 0 0 0 0 0 0 0 0 0 0 0 0.04 0"/>
<feBlend mode="normal" in2="BackgroundImageFix" result="effect1_dropShadow_9_50"/>
<feBlend mode="normal" in="SourceGraphic" in2="effect1_dropShadow_9_50" result="shape"/>
</filter>
</defs>
</svg>
