<svg width="97" height="96" viewBox="0 0 97 96" fill="none" xmlns="http://www.w3.org/2000/svg">
<path d="M67.6662 43.7929H62.3477C61.3595 43.7929 60.4845 44.4247 60.1828 45.356L55.2268 60.657C54.7565 62.109 55.851 63.5938 57.3917 63.5938H60.1061C60.9738 63.5938 61.6644 64.3134 61.6198 65.1709L60.7794 81.3236C60.7585 81.7267 61.3075 81.8735 61.4945 81.5148L73.1549 59.1568C73.9359 57.6593 72.8375 55.8748 71.1347 55.8748H68.8649C67.8313 55.8748 67.1009 54.8733 67.4264 53.9024L69.8239 46.7515C70.3122 45.2951 69.2166 43.7929 67.6662 43.7929Z" fill="white"/>
<path d="M74.4023 62.1834L75.9636 59.1897C77.3438 56.5432 75.4026 53.3896 72.3933 53.3896H70.2441L72.5418 46.5363C73.4047 43.9625 71.4685 41.3077 68.7285 41.3077H61.7883C60.0419 41.3077 58.4955 42.4243 57.9623 44.0702L52.5147 60.8889C52.3741 61.3231 52.3126 61.7589 52.3207 62.1834L25.1468 62.1834C14.6068 62.1834 6.0625 53.7272 6.0625 43.2958C6.0625 32.8645 14.6068 24.4083 25.1468 24.4083C27.4322 24.4083 29.6238 24.8058 31.6548 25.5349C35.6619 15.8346 45.2922 9 56.5355 9C71.3747 9 83.4042 20.9055 83.4042 35.5917C83.4042 36.2387 83.3809 36.8802 83.335 37.5156C87.8224 39.5606 90.9375 44.0504 90.9375 49.2603C90.9375 56.3976 85.0913 62.1834 77.8798 62.1834H74.4023Z" fill="white"/>
<path d="M51.8596 82.4723L49.2533 77.0947L46.6467 82.4731C46.3881 82.9212 46.24 83.4422 46.24 83.998C46.24 85.6755 47.5891 87.0354 49.2533 87.0354C50.9176 87.0354 52.2667 85.6755 52.2667 83.998C52.2667 83.4419 52.1184 82.9206 51.8596 82.4723Z" fill="white"/>
<path d="M42.82 72.5323L40.2134 67.1538L37.6071 72.5316C37.3483 72.9799 37.2001 73.5011 37.2001 74.0572C37.2001 75.7347 38.5492 77.0946 40.2134 77.0946C41.8776 77.0946 43.2267 75.7347 43.2267 74.0572C43.2267 73.5014 43.0786 72.9805 42.82 72.5323Z" fill="white"/>
<path d="M33.78 82.4728L31.1735 77.0947L28.5671 82.4725C28.3084 82.9208 28.1602 83.4419 28.1602 83.998C28.1602 85.6755 29.5093 87.0354 31.1735 87.0354C32.8377 87.0354 34.1868 85.6755 34.1868 83.998C34.1868 83.4421 34.0386 82.9211 33.78 82.4728Z" fill="white"/>
<path d="M24.7399 72.5318L22.1335 67.1538L19.527 72.5321C19.2683 72.9803 19.1202 73.5013 19.1202 74.0572C19.1202 75.7347 20.4693 77.0946 22.1335 77.0946C23.7977 77.0946 25.1468 75.7347 25.1468 74.0572C25.1468 73.5012 24.9986 72.9801 24.7399 72.5318Z" fill="white"/>
</svg>
