<svg width="37" height="53" viewBox="0 0 37 53" fill="none" xmlns="http://www.w3.org/2000/svg">
<path fill-rule="evenodd" clip-rule="evenodd" d="M31.5327 5.0354C28.0954 1.868 23.4526 0.0614245 18.592 0H18.408C13.5474 0.0614245 8.90455 1.868 5.46725 5.0354C2.02995 8.2028 0.0694325 12.481 0.00277441 16.96C-0.0589975 20.1412 0.911981 23.2669 2.79116 25.9361L17.2735 53H19.7265L34.2088 25.9361C36.088 23.2669 37.059 20.1412 36.9972 16.96C36.9306 12.481 34.97 8.2028 31.5327 5.0354ZM18.1503 4.24L18.5276 4.2824L18.8681 4.24C22.4827 4.38507 25.8997 5.8006 28.4167 8.19561C30.9336 10.5906 32.3592 13.7831 32.4005 17.1169C32.4354 19.4829 31.6858 21.8023 30.2517 23.7652L30.1597 23.9094L30.0815 24.0578L18.5 45.703L6.91853 24.079L6.8403 23.9136L6.74828 23.7694C5.31424 21.8066 4.56456 19.4871 4.59947 17.1211C4.63871 13.7835 6.06602 10.587 8.5872 8.1904C11.1084 5.79383 14.5313 4.37987 18.1503 4.24ZM20.9633 13.4348C20.2066 12.9689 19.317 12.7202 18.407 12.7202C17.1866 12.7202 16.0163 13.1669 15.1534 13.9621C14.2904 14.7572 13.8057 15.8357 13.8057 16.9602C13.8057 17.7988 14.0755 18.6186 14.5811 19.3158C15.0867 20.0131 15.8053 20.5566 16.6461 20.8775C17.4869 21.1984 18.4121 21.2824 19.3046 21.1188C20.1972 20.9552 21.0171 20.5513 21.6606 19.9584C22.3041 19.3654 22.7423 18.6099 22.9199 17.7874C23.0974 16.9649 23.0063 16.1124 22.658 15.3376C22.3097 14.5629 21.72 13.9007 20.9633 13.4348ZM13.2943 9.90936C14.8076 8.97757 16.5869 8.48022 18.407 8.48022C20.8476 8.48022 23.1884 9.37365 24.9142 10.964C26.64 12.5543 27.6096 14.7112 27.6096 16.9602C27.6096 18.6374 27.0698 20.2769 26.0586 21.6715C25.0475 23.066 23.6102 24.1529 21.9286 24.7947C20.2471 25.4366 18.3968 25.6045 16.6116 25.2773C14.8265 24.9501 13.1867 24.1424 11.8997 22.9565C10.6127 21.7705 9.73627 20.2596 9.38119 18.6146C9.0261 16.9696 9.20835 15.2646 9.90487 13.7151C10.6014 12.1656 11.7809 10.8412 13.2943 9.90936Z" fill="white"/>
</svg>
