<svg width="44" height="44" viewBox="0 0 44 44" fill="white" xmlns="http://www.w3.org/2000/svg">
<path d="M18.2082 22C23.7171 22 28.1829 17.5228 28.1829 12C28.1829 6.47715 23.7171 2 18.2082 2C12.6993 2 8.2334 6.47715 8.2334 12C8.2334 17.5228 12.6993 22 18.2082 22Z" stroke="black" stroke-width="3" stroke-linecap="round" stroke-linejoin="round"/>
<path d="M29.8705 26.4205C27.0175 23.5795 23.1568 21.989 19.1356 21.9981H17.2807C13.228 21.9981 9.34132 23.6121 6.47563 26.485C3.60993 29.358 2 33.2545 2 37.3175V42H34.4163V41.2678" stroke="black" stroke-width="3" stroke-linecap="round" stroke-linejoin="round"/>
<path d="M34.3115 32.2679L35.953 33.9125C36.0739 34.034 36.2175 34.1303 36.3755 34.1961C36.5336 34.2618 36.703 34.2957 36.8742 34.2957C37.0453 34.2957 37.2148 34.2618 37.3728 34.1961C37.5309 34.1303 37.6745 34.034 37.7953 33.9125L41.9999 29.6982" stroke="black" stroke-width="3" stroke-linecap="round" stroke-linejoin="round"/>
</svg>
